<svg xmlns="http://www.w3.org/2000/svg" viewBox="0 0 6.22 6.22"><defs><style>.cls-1{fill:#fff;}</style></defs><title>in</title><g id="Layer_2" data-name="Layer 2"><g id="Layer_1-2" data-name="Layer 1"><path class="cls-1" d="M4.26,1.54h.31a.11.11,0,0,1,.11.11V2a.11.11,0,0,1-.11.11H4.26a.1.1,0,0,1-.1-.1V1.65A.1.1,0,0,1,4.26,1.54Z"/><path class="cls-1" d="M3.11,0A3.11,3.11,0,1,0,6.22,3.11,3.11,3.11,0,0,0,3.11,0ZM5,4.39A.58.58,0,0,1,4.39,5H1.83a.58.58,0,0,1-.59-.58V2.89H2a1.5,1.5,0,0,0,0,.22,1.13,1.13,0,0,0,2.26,0,1.5,1.5,0,0,0,0-.22H5ZM2.42,3.11a.69.69,0,1,1,.69.69A.69.69,0,0,1,2.42,3.11ZM5,2.45H4a1.14,1.14,0,0,0-1.84,0H1.24V1.82a.58.58,0,0,1,.59-.58H4.39A.58.58,0,0,1,5,1.82Z"/></g></g></svg>