<svg xmlns="http://www.w3.org/2000/svg" viewBox="0 0 6.23 6.23"><defs><style>.cls-1{fill:#fff;fill-rule:evenodd;}</style></defs><title>vk</title><g id="Layer_2" data-name="Layer 2"><g id="Layer_1-2" data-name="Layer 1"><path class="cls-1" d="M3.11,0h0A3.12,3.12,0,0,0,0,3.11H0A3.12,3.12,0,0,0,3.11,6.23h0A3.12,3.12,0,0,0,6.23,3.12h0A3.12,3.12,0,0,0,3.11,0Zm.33,4.65H2V1.58H3.31a.94.94,0,0,1,1,.94A.71.71,0,0,1,4,3.05a.67.67,0,0,1,.37.63A.91.91,0,0,1,3.44,4.65Z"/><path class="cls-1" d="M3.25,2.28H2.76v.5h.49A.25.25,0,0,0,3.25,2.28Z"/><path class="cls-1" d="M3.38,3.43H2.76V4h.63C3.7,4,3.7,3.43,3.38,3.43Z"/></g></g></svg>