<svg xmlns="http://www.w3.org/2000/svg" viewBox="0 0 6.23 6.23"><defs><style>.cls-1{fill:#fff;}</style></defs><title>yt</title><g id="Layer_2" data-name="Layer 2"><g id="Layer_1-2" data-name="Layer 1"><path class="cls-1" d="M3.11,0A3.12,3.12,0,1,0,6.23,3.11,3.11,3.11,0,0,0,3.11,0Zm2,3.27a5.62,5.62,0,0,1,0,.69.94.94,0,0,1-.16.41.59.59,0,0,1-.4.18c-.57,0-1.41,0-1.41,0s-1,0-1.37,0a.71.71,0,0,1-.44-.18A.94.94,0,0,1,1.14,4a5.62,5.62,0,0,1,0-.69V3a5.57,5.57,0,0,1,0-.68.9.9,0,0,1,.16-.41.54.54,0,0,1,.4-.18c.28,0,.63,0,.92,0h.49s.84,0,1.41,0a.54.54,0,0,1,.4.18.9.9,0,0,1,.16.41,5.57,5.57,0,0,1,0,.68Z"/><polygon class="cls-1" points="2.69 2.48 2.69 3.66 3.78 3.07 3.19 2.74 2.69 2.48"/></g></g></svg>