<svg xmlns="http://www.w3.org/2000/svg" xmlns:xlink="http://www.w3.org/1999/xlink" viewBox="0 0 1500 720">
    <title>Masterplan</title>
    <g id="Layer_2" data-name="Layer 2">
        <g id="Layer_1-2" data-name="Layer 1">
            <polygon points="915 603 1001 526 1029 539 1026 576 945 653 915 640 915 603" style="fill:transparent"/>
            <polygon points="1051 581 1072 560 1205 630 1196 671 1182 688 1045 615 1051 581" style="fill:transparent"/>
            <polygon points="542 472 618 422 651 441 654 498 579 552 547 534 542 472" style="fill:transparent"/>
            <polygon points="473 462 466 403 610 320 640 337 642 391 502 480 473 462" style="fill:transparent"/>
            <polygon points="428 416 501 375 501 367 557 333 554 282 529 268 460 304 460 312 396 346 401 400 428 416" style="fill:transparent"/>
            <polygon points="448 226 423 236 419 236 408 241 408 245 381 257 374 254 346 266 342 264 330 270 330 274 302 287 295 284 264 296 260 294 248 300 248 305 216 320 211 317 176 330 173 328 158 335 160 339 126 355 144 410 163 422 246 385 252 390 329 352 334 356 407 317 413 322 479 286 472 239 448 226" style="fill:transparent"/>
            <polygon points="274 203 340 175 362 187 370 236 303 266 283 252 274 203" style="fill:transparent"/>
            <polygon points="211 229 232 244 245 294 89 364 71 351 52 295 211 229" style="fill:transparent"/>
            <polygon points="188 156 202 209 219 219 285 191 274 145 253 130 188 156" style="fill:transparent"/>
            <polygon points="9 307 160 244 146 195 126 180 0 223 0 300 9 307" style="fill:transparent"/>
            <polygon points="1280 650 1297 629 1306 591 1051 470 1029 487 1027 523 1280 650" style="fill:transparent"/>
            <polygon points="1084 480 1088 447 1157 388 1182 399 1176 437 1115 493 1084 480" style="fill:transparent"/>
            <polygon points="1182 529 1189 489 1250 430 1283 444 1275 476 1214 543 1182 529" style="fill:transparent"/>
            <polygon points="1275 571 1285 536 1344 468 1378 483 1368 517 1311 587 1275 571" style="fill:transparent"/>
            <polygon points="1162 371 1179 357 1422 457 1411 488 1398 505 1374 496.6 1378 483 1344 468 1336.13 477.07 1280.57 453.73 1283 444 1250 430 1242.53 437.23 1180.11 410.96 1182 399 1157 388 1162 371" style="fill:transparent"/>
            <polygon points="992 483 1126 368 1131 339 1103 328 969 431 966 470 992 483" style="fill:transparent"/>
            <polygon points="821 417 821 387 842 373 944 423 942 457 925 470 821 417" style="fill:transparent"/>
            <polygon points="961 318 964 287 980 276 1079 318 1075 349 1060.23 360.87 961 318" style="fill:transparent"/>
            <polygon points="793 355 793 387 815 397 821 390.67 821 388 842 373 845.35 374.64 953 300 955 268 936 259 793 355" style="fill:transparent"/>
            <polygon points="795 248 817 257 817 263 803 272 803 301 821 310 885 270 885 242 810 208 795 218 795 248" style="fill:transparent"/>
            <polygon points="720 225 686 246 663 237 663 210 708 186 753 186 799 204 799 216 795 218 795 235.67 782 243 735 225 720 225" style="fill:transparent"/>
            <polygon points="673 286 727 314 775 283 799 296 799 324 731 369 654 330 654 300 673 286" style="fill:transparent"/>
            <polygon points="645 328 569 288 569 259 640 221 657 230 659 260 644 270 660 283 660 295.58 654 300 654 321.67 645 328" style="fill:transparent"/>
            <polygon points="554 148 510 169 492 160 492 132 554 103 614 129 614 136 608 141 608 160 598 164 597 158 576 148 554 148" style="fill:transparent"/>
            <polygon points="622 177 609 184 609 213 626 220 675 197 675 155 621 131 609 141 609 172 622 177" style="fill:transparent"/>
            <polygon points="487 178 466 189 475 195 475 205 463 210 464 230 457.17 230.97 399 203 396 175 469 143 487 152 487 178" style="fill:transparent"/>
            <polygon points="529 221 578 196 601 206 602 232 531.96 269.66 463.98 234.66 464 210 487 199 529 221" style="fill:transparent"/>
            <polygon points="506 183 507.48 209.73 529 221 599 183 597 158 576 148 506 183" style="fill:transparent"/>
            <polygon points="599 89 599 116 706 159 747 159 786 136 786 111 771 103 753 105 725 117 622 80 599 89" style="fill:transparent"/>
            <polygon points="842 159 837 160 837 169 852 174 852 184 852 203 840 210 786 188 780 173 780 148 826 124 842 128 842 159" style="fill:transparent"/>
            <polygon points="874 159 902 141 923 150 923 178 902 191 874 179 874 159" style="fill:transparent"/>
            <polygon points="869 175 852 184 852 214 925 246 1008 189 1008 164 983 154 920 196 869 175" style="fill:transparent"/>
            <polygon points="1017 253 1016 282 1107 323 1122 313 1126 281 1035 244 1017 253" style="fill:transparent"/>
            <polygon points="1062 174 1084 182 1081 212 997 269 974 261 974 231 1062 174" style="fill:transparent"/>
            <polygon points="1108 223 1135 203 1157 210 1154 238 1126 262 1106 255 1108 223" style="fill:transparent"/>
            <polygon points="1145 294 1223 231 1249 241 1245 266 1166 335 1143 327 1145 294" style="fill:transparent"/>
            <polygon points="1306 259 1330 269 1328 293 1283 339 1250 326 1252 304 1306 259" style="fill:transparent"/>
            <polygon points="1338 360 1346 333 1389 290 1422 301 1416 323 1374 372 1338 360" style="fill:transparent"/>
            <polygon points="1225 316 1210 328 1203 358 1438 455 1453 437 1462 408 1225 316" style="fill:transparent"/>
            <polygon points="1308 250 1320 241 1400 269 1397 284 1389 290 1382 297 1330 279 1330 269 1306 259 1308 250" style="fill:transparent"/>
            <polygon points="1330 235 1338 228 1398 249 1398 257 1391.43 266 1327.65 243.68 1330 235" style="fill:transparent"/>
            <polygon points="1347 228 1351 215 1359 207 1400 222 1398 233 1390 242 1347 228" style="fill:transparent"/>
            <polygon points="1143 192 1152 185 1275 226 1275 241 1263 254 1247.62 249.61 1249 241 1223 231 1215.26 237.25 1156.5 214.68 1157 210 1138.71 204.18 1143 192" style="fill:transparent"/>
            <polygon points="1008 146 1020 137 1131 177 1131 194 1119 203 1083.1 191 1084 182 1062 174 1050.43 181.49 1008 164 1008 146" style="fill:transparent"/>
            <polygon points="1095 156 1104 149 1190 178 1190 189 1181.8 194.93 1095 164.03 1095 156" style="fill:transparent"/>
            <polygon points="1155 149 1155 163 1207 180 1216 172 1216 158 1164 143 1155 149" style="fill:transparent"/>
            <polygon points="1190 143 1199 136 1233 147 1233 157 1224 166 1216 164.67 1216 158 1190 149 1190 143" style="fill:transparent"/>
            <polygon points="1196 191 1207 183 1297 213 1297 224 1288 234 1275 231 1275 226 1196 199.67 1196 191" style="fill:transparent"/>
            <polygon points="1222 174 1230 166 1320 195 1320 205 1309 216 1219 185 1222 174" style="fill:transparent"/>
            <polygon points="1239 159 1249 151 1338 180 1338 192 1328 203 1320 200 1320 195 1236.92 168.23 1239 159" style="fill:transparent"/>
            <polygon points="1251 137 1261 132 1349 157 1347 170 1338 177 1249 151 1251 137" style="fill:transparent"/>
        </g>
    </g>
</svg>