<svg xmlns="http://www.w3.org/2000/svg" xmlns:xlink="http://www.w3.org/1999/xlink" viewBox="0 0 322.01 107.7">
  <defs>
    <linearGradient id="New_Gradient_Swatch" data-name="New Gradient Swatch" x1="13.46" y1="53.85" x2="13.46" y2="26.92" gradientTransform="translate(-26.92 53.85) rotate(-90)" gradientUnits="userSpaceOnUse">
      <stop offset="0" stop-color="#f9a020"/>
      <stop offset="0.39" stop-color="#f99d20"/>
      <stop offset="0.62" stop-color="#f89521"/>
      <stop offset="0.81" stop-color="#f68722"/>
      <stop offset="0.98" stop-color="#f37324"/>
      <stop offset="1" stop-color="#f37024"/>
    </linearGradient>
    <linearGradient id="yellow" x1="67.31" y1="53.85" x2="67.31" y2="26.92" gradientTransform="translate(26.93 107.7) rotate(-90)" gradientUnits="userSpaceOnUse">
      <stop offset="0" stop-color="#ffd100"/>
      <stop offset="0.4" stop-color="#ffce02"/>
      <stop offset="0.64" stop-color="#fec607"/>
      <stop offset="0.84" stop-color="#fcb80f"/>
      <stop offset="1" stop-color="#faa61a"/>
    </linearGradient>
  </defs>
  <title>logotype_1</title>
  <g id="Layer_2" data-name="Layer 2">
    <g id="Isolation_Mode" data-name="Isolation Mode">
      <g>
        <g class="g-path-text-bottom">
          <path d="M108.5,71.79h6.09v1.73h-4.16v7.25H108.5Z" style="fill: #fff"/>
          <path d="M119.65,71.79a3.19,3.19,0,0,1,2.29.87,3,3,0,0,1,0,4.29,3.17,3.17,0,0,1-2.29.87h-1.86v3h-1.92v-9Zm-1.86,1.73v2.56h1.79a1.3,1.3,0,0,0,1-.37,1.17,1.17,0,0,0,.39-.9,1.21,1.21,0,0,0-.39-.91,1.3,1.3,0,0,0-1-.38Z" style="fill: #fff"/>
          <path d="M127.52,76l1.8-4.23h2.05l-3.14,6.73a4.91,4.91,0,0,1-1.3,1.77,2.83,2.83,0,0,1-1.84.6,3,3,0,0,1-.52,0,2.19,2.19,0,0,1-.38-.1l-.13,0V79a2.18,2.18,0,0,0,.77.12,1.62,1.62,0,0,0,1.48-.89l.25-.45-3.2-6h2Z" style="fill: #fff"/>
          <path d="M140.14,80.77h-1.92V73.52h-3.78v7.25h-1.93v-9h7.63Z" style="fill: #fff"/>
          <path d="M150.06,80.77h-1.92V73.52h-3.78v7.25h-1.93v-9h7.63Z" style="fill: #fff"/>
          <path d="M154.16,78.65l-.77,2.12h-2.06l3.53-9h2l3.53,9h-2.05l-.77-2.12ZM155.89,74,154.79,77H157Z" style="fill: #fff"/>
          <path d="M166.26,75.7l3.52-3.91H172l-3.33,3.72,3.59,5.26H170l-2.63-3.85-1.15,1.28v2.57h-1.93v-9h1.93Z" style="fill: #fff"/>
          <path d="M173.81,73a5.05,5.05,0,0,1,6.92,0,4.59,4.59,0,0,1,0,6.62,5.05,5.05,0,0,1-6.92,0,4.59,4.59,0,0,1,0-6.62Zm1.42,5.4a2.85,2.85,0,0,0,4.08,0,2.84,2.84,0,0,0,.84-2.09,2.88,2.88,0,0,0-.84-2.1,2.87,2.87,0,0,0-4.08,0,2.88,2.88,0,0,0-.84,2.1A2.84,2.84,0,0,0,175.23,78.37Z" style="fill: #fff"/>
          <path d="M191.84,71.79h1.7v9h-1.92v-6l-2.89,3.68-2.88-3.65v6h-1.93v-9h1.74l3.07,3.91Z" style="fill: #fff"/>
          <path d="M203.46,80.77h-1.92V73.52h-3.78v7.25h-1.93v-9h7.63Z" style="fill: #fff"/>
          <path d="M207.55,78.65l-.77,2.12h-2.05l3.53-9h2.05l3.53,9h-2.05L211,78.65ZM209.29,74,208.19,77h2.19Z" style="fill: #fff"/>
          <path d="M222.8,80.77h-1.92V77.11H217v3.66h-1.93v-9H217v3.59h3.84V71.79h1.92Z" style="fill: #fff"/>
          <path d="M231.19,80.77V75.06l-4.42,5.71H225.1v-9H227V77.5l4.42-5.71h1.67v9Z" style="fill: #fff"/>
          <path d="M241.49,80.77V75.06l-4.42,5.71H235.4v-9h1.93V77.5l4.42-5.71h1.66v9Zm-1.56-11.44a.76.76,0,0,0,.22-.55h1.28a1.91,1.91,0,0,1-.57,1.43,2.24,2.24,0,0,1-3,0,1.91,1.91,0,0,1-.57-1.43h1.28a.75.75,0,0,0,.77.77A.74.74,0,0,0,239.93,69.33Z" style="fill: #fff"/>
        </g>
        <g class="g-path-text-top">
          <path d="M120.24,41.71a3.53,3.53,0,0,0-1.36-1,4.15,4.15,0,0,0-1.77-.4,3.75,3.75,0,0,0-1.69.38,4,4,0,0,0-1.3,1,4.86,4.86,0,0,0-.85,1.45,5.22,5.22,0,0,0-.3,1.77,5.12,5.12,0,0,0,.29,1.76,4.23,4.23,0,0,0,.84,1.46,4.1,4.1,0,0,0,1.34,1,4,4,0,0,0,1.74.36,4.9,4.9,0,0,0,1.79-.34,3.5,3.5,0,0,0,1.42-1l3.28,4a7.78,7.78,0,0,1-2.89,1.69,11.24,11.24,0,0,1-3.74.61,11.93,11.93,0,0,1-4-.64,9.49,9.49,0,0,1-3.2-1.89,8.93,8.93,0,0,1-2.14-3,9.81,9.81,0,0,1-.78-4,9.68,9.68,0,0,1,.78-4,8.83,8.83,0,0,1,2.14-3,9.53,9.53,0,0,1,3.2-1.91,11.58,11.58,0,0,1,3.93-.66,11.35,11.35,0,0,1,1.93.17,15,15,0,0,1,1.84.49,8.94,8.94,0,0,1,1.62.76,6.89,6.89,0,0,1,1.28,1Z" style="fill: #fff"/>
          <path d="M124.39,35.91h15.88v4.58h-5V53.85h-5.9V40.49h-5Z" style="fill: #fff"/>
          <path d="M161.81,44.81a11.13,11.13,0,0,1-.58,3.6,9.16,9.16,0,0,1-1.67,3,8.33,8.33,0,0,1-2.69,2.11,7.88,7.88,0,0,1-3.6.79,7.58,7.58,0,0,1-3.13-.66,5.66,5.66,0,0,1-2.31-1.82h-.07V62.49h-5.91V35.91h5.62v2.2h.11a7.29,7.29,0,0,1,2.29-1.89,7,7,0,0,1,3.44-.81,8.15,8.15,0,0,1,3.53.75,8,8,0,0,1,2.68,2.06,9.19,9.19,0,0,1,1.69,3A10.78,10.78,0,0,1,161.81,44.81Zm-5.73,0a5.49,5.49,0,0,0-.27-1.7,4.34,4.34,0,0,0-.79-1.45,4,4,0,0,0-1.32-1,4.08,4.08,0,0,0-1.83-.4,4,4,0,0,0-1.8.4,4.21,4.21,0,0,0-1.35,1,4.85,4.85,0,0,0-1.17,3.17,5,5,0,0,0,.3,1.7,4.73,4.73,0,0,0,.87,1.47,4.24,4.24,0,0,0,1.35,1.05,4,4,0,0,0,1.8.39,4.07,4.07,0,0,0,1.83-.39A3.91,3.91,0,0,0,155,48a4.53,4.53,0,0,0,.79-1.49A5.6,5.6,0,0,0,156.08,44.81Z" style="fill: #fff"/>
          <path d="M183.13,44.81a9.69,9.69,0,0,1-.79,4,9,9,0,0,1-2.16,3A10,10,0,0,1,177,53.74a11.21,11.21,0,0,1-7.69,0,9.71,9.71,0,0,1-3.17-1.93,8.91,8.91,0,0,1-2.14-3,9.69,9.69,0,0,1-.8-4,9.5,9.5,0,0,1,.8-4,8.69,8.69,0,0,1,2.14-3A9.43,9.43,0,0,1,169.32,36,11.87,11.87,0,0,1,177,36a9.73,9.73,0,0,1,3.17,1.88,8.74,8.74,0,0,1,2.16,3A9.49,9.49,0,0,1,183.13,44.81Zm-5.69,0a5.24,5.24,0,0,0-.29-1.7,4.43,4.43,0,0,0-.83-1.45,4,4,0,0,0-3.17-1.43,4.08,4.08,0,0,0-1.83.4,4,4,0,0,0-1.32,1,4.34,4.34,0,0,0-.79,1.45,5.49,5.49,0,0,0-.27,1.7,5.43,5.43,0,0,0,.27,1.69A4.74,4.74,0,0,0,170,48a4.19,4.19,0,0,0,1.33,1.06,4.11,4.11,0,0,0,5-1.06,4.74,4.74,0,0,0,.81-1.5A5.43,5.43,0,0,0,177.44,44.81Z" style="fill: #fff"/>
          <path d="M198.51,43.48l-7.89,10.37h-5.9V35.91h5.9v10.3l7.89-10.3h5.91V53.85h-5.91Zm-9.36-14.56a6,6,0,0,0,2.09,3.46,6.16,6.16,0,0,0,4,1.23A6.27,6.27,0,0,0,199,32.45a6.15,6.15,0,0,0,2.22-3.53l-4-.68a2.32,2.32,0,0,1-.76,1.35,2,2,0,0,1-1.33.49,2.09,2.09,0,0,1-1.34-.47,2.27,2.27,0,0,1-.75-1.37Z" style="fill: #fff"/>
          <path d="M207.33,38.36a10.42,10.42,0,0,1,3.7-2.27,12.72,12.72,0,0,1,4.3-.75,11.64,11.64,0,0,1,3.84.55,5.82,5.82,0,0,1,2.54,1.73,7.5,7.5,0,0,1,1.42,3,17.41,17.41,0,0,1,.45,4.23v9h-5.4V51.94h-.11A4.52,4.52,0,0,1,216,53.67a7.36,7.36,0,0,1-3,.61,9.23,9.23,0,0,1-2.23-.29,6.47,6.47,0,0,1-2.11-.93,5.14,5.14,0,0,1-1.57-1.73,5.33,5.33,0,0,1-.61-2.67,4.51,4.51,0,0,1,1.06-3.13,7,7,0,0,1,2.74-1.84,14.46,14.46,0,0,1,3.73-.86,36.68,36.68,0,0,1,4-.22v-.29a2.2,2.2,0,0,0-.94-2,4,4,0,0,0-2.31-.63,5.74,5.74,0,0,0-2.43.54,7.76,7.76,0,0,0-2,1.3ZM218.18,46h-.76c-.65,0-1.3,0-2,.09a8.69,8.69,0,0,0-1.77.34,3.43,3.43,0,0,0-1.28.74,1.73,1.73,0,0,0-.5,1.28,1.61,1.61,0,0,0,.23.87,1.81,1.81,0,0,0,.6.57,2.35,2.35,0,0,0,.83.31,4.73,4.73,0,0,0,.9.09,3.65,3.65,0,0,0,2.75-1,3.71,3.71,0,0,0,1-2.69Z" style="fill: #fff"/>
          <path d="M239.53,53.85l-3.78-10.92-4.07,10.92h-6.37l6.95-17.94h7.06l6.59,17.94Z" style="fill: #fff"/>
          <path d="M253.73,35.91v5.44h4a11,11,0,0,1,3.43.47,5.79,5.79,0,0,1,2.26,1.31,5.08,5.08,0,0,1,1.26,2,7.22,7.22,0,0,1,.4,2.44A6.59,6.59,0,0,1,264.6,50a5.54,5.54,0,0,1-1.37,2A6.4,6.4,0,0,1,261,53.36a9,9,0,0,1-3.11.49H247.82V35.91Zm0,13.8h2.88a4,4,0,0,0,2-.45,1.79,1.79,0,0,0,.77-1.68,1.72,1.72,0,0,0-.81-1.66,4.4,4.4,0,0,0-2-.43h-2.8Z" style="fill: #fff"/>
          <path d="M276.67,48.48a6.38,6.38,0,0,0-1.42.15,2.26,2.26,0,0,0-1.19.68,4.51,4.51,0,0,0-.92,1.62,14.15,14.15,0,0,0-.65,2.92H266a14.22,14.22,0,0,1,1-3.32,10.21,10.21,0,0,1,1.39-2.28,6,6,0,0,1,1.55-1.39,6.09,6.09,0,0,1,1.47-.65V46.1a6.72,6.72,0,0,1-1.63-.41,3.57,3.57,0,0,1-1.35-.92,4.19,4.19,0,0,1-.91-1.58,8,8,0,0,1-.32-2.42,4.34,4.34,0,0,1,.68-2.52,4.45,4.45,0,0,1,1.73-1.47,7.77,7.77,0,0,1,2.31-.69,17,17,0,0,1,2.41-.18h9.47V53.85h-5.9V48.48Zm-3.86-6a1.17,1.17,0,0,0,.63,1.19,6.89,6.89,0,0,0,2.44.29h2V40.85h-2a13.3,13.3,0,0,0-1.57.07,2.56,2.56,0,0,0-.91.25.91.91,0,0,0-.44.49A2.37,2.37,0,0,0,272.81,42.43Z" style="fill: #fff"/>
          <path d="M291.83,53.85h-5.9V35.91h5.9v6.63h6V35.91h5.9V53.85h-5.9V47.08h-6Z" style="fill: #fff"/>
          <path d="M318.59,41.71a3.49,3.49,0,0,0-1.37-1,4.07,4.07,0,0,0-1.76-.4,3.72,3.72,0,0,0-1.69.38,4,4,0,0,0-1.3,1,4.86,4.86,0,0,0-.85,1.45,5.22,5.22,0,0,0-.3,1.77,5.12,5.12,0,0,0,.29,1.76,4.23,4.23,0,0,0,.84,1.46,4.06,4.06,0,0,0,1.33,1,4.12,4.12,0,0,0,1.75.36,4.81,4.81,0,0,0,1.78-.34,3.47,3.47,0,0,0,1.43-1l3.27,4a7.66,7.66,0,0,1-2.88,1.69,11.24,11.24,0,0,1-3.74.61,11.93,11.93,0,0,1-4-.64,9.39,9.39,0,0,1-3.2-1.89,8.93,8.93,0,0,1-2.14-3,9.81,9.81,0,0,1-.78-4,9.68,9.68,0,0,1,.78-4,8.83,8.83,0,0,1,2.14-3,9.43,9.43,0,0,1,3.2-1.91,11.58,11.58,0,0,1,3.93-.66,11.35,11.35,0,0,1,1.93.17,14.86,14.86,0,0,1,1.83.49,9,9,0,0,1,1.63.76,6.81,6.81,0,0,1,1.27,1Z" style="fill: #fff"/>
        </g>
        <g>
          <rect y="26.92" width="26.92" height="26.92" transform="translate(53.85 26.92) rotate(90)" style="fill: url(#New_Gradient_Swatch)"/>
          <rect x="53.85" y="26.92" width="26.92" height="26.92" transform="translate(107.7 -26.92) rotate(90)" style="fill: url(#yellow)"/>
          <polygon points="0 26.92 26.93 0 26.93 26.92 0 26.92" style="fill: #aee0e8"/>
          <rect x="26.93" width="26.92" height="26.92" transform="translate(53.85 -26.92) rotate(90)" style="fill: #06a8de"/>
          <polygon points="53.85 26.92 53.85 0 80.77 26.92 53.85 26.92" style="fill: #6dc065"/>
          <rect x="53.85" y="53.85" width="26.92" height="26.92" transform="translate(134.62 0) rotate(90)" style="fill: #f48fac"/>
          <rect x="26.93" y="53.85" width="26.92" height="26.92" transform="translate(107.7 26.92) rotate(90)" style="fill: #c5202d"/>
          <rect y="53.85" width="26.92" height="26.92" transform="translate(80.77 53.85) rotate(90)" style="fill: #ed1164"/>
          <rect y="80.77" width="26.92" height="26.92" style="fill: #0071b9"/>
          <rect x="53.85" y="80.77" width="26.92" height="26.92" style="fill: #ab4a9c"/>
        </g>
      </g>
    </g>
  </g>
</svg>
