<?xml version="1.0" encoding="UTF-8"?><!DOCTYPE svg PUBLIC "-//W3C//DTD SVG 1.1//EN" "http://www.w3.org/Graphics/SVG/1.1/DTD/svg11.dtd"><svg xmlns="http://www.w3.org/2000/svg"><defs>
        <style>
            .cls-1{fill:none;stroke:#505070;stroke-linecap:round;stroke-linejoin:round;stroke-width:2px}
        </style>
    
        <style>
            .cls-1{fill:#fff}
        </style>
    
        <style>
            .cls-1{fill:#fff}
        </style>
    
        <style>
            .cls-1{fill:#fff;fill-rule:evenodd}
        </style>
    
        <style>
            .cls-1{fill:#fff}
        </style>
    </defs><symbol id="ico-doc" viewBox="0 0 44 56">
    
    <title>
        doc
    </title>
    <g id="Layer_2" data-name="Layer 2">
        <g id="Multimedia">
            <path class="cls-1" d="M17 21h10"/>
            <path class="cls-1" d="M9 29h26"/>
            <path class="cls-1" d="M9 37h26"/>
            <path class="cls-1" d="M43 55H1V1h32l10 10v44z"/>
            <path class="cls-1" d="M33 1v10h10"/>
        </g>
    </g>
</symbol><symbol id="ico-fb" viewBox="0 0 6.21 6.21">
    
    <title>
        fb
    </title>
    <g id="Layer_2" data-name="Layer 2">
        <path class="cls-1" d="M3.11 0A3.12 3.12 0 0 0 0 3.11a3.11 3.11 0 0 0 3.11 3.1 3.1 3.1 0 0 0 3.1-3.1A3.12 3.12 0 0 0 3.11 0zm1.12 3.31h-.91v2.12h-.9V3.31H2v-.69h.44v-.45c0-.61.26-1 1-1h.83V2h-.61c-.27 0-.33.09-.33.38v.29h.91z" id="Layer_1-2" data-name="Layer 1"/>
    </g>
</symbol><symbol id="ico-in" viewBox="0 0 6.22 6.22">
    
    <title>
        in
    </title>
    <g id="Layer_2" data-name="Layer 2">
        <g id="Layer_1-2" data-name="Layer 1">
            <path class="cls-1" d="M4.26 1.54h.31a.11.11 0 0 1 .11.11V2a.11.11 0 0 1-.11.11h-.31a.1.1 0 0 1-.1-.1v-.36a.1.1 0 0 1 .1-.11z"/>
            <path class="cls-1" d="M3.11 0a3.11 3.11 0 1 0 3.11 3.11A3.11 3.11 0 0 0 3.11 0zM5 4.39a.58.58 0 0 1-.61.61H1.83a.58.58 0 0 1-.59-.58V2.89H2a1.5 1.5 0 0 0 0 .22 1.13 1.13 0 0 0 2.26 0 1.5 1.5 0 0 0 0-.22H5zM2.42 3.11a.69.69 0 1 1 .69.69.69.69 0 0 1-.69-.69zM5 2.45H4a1.14 1.14 0 0 0-1.84 0h-.92v-.63a.58.58 0 0 1 .59-.58h2.56a.58.58 0 0 1 .61.58z"/>
        </g>
    </g>
</symbol><symbol id="ico-vk" viewBox="0 0 6.23 6.23">
    
    <title>
        vk
    </title>
    <g id="Layer_2" data-name="Layer 2">
        <g id="Layer_1-2" data-name="Layer 1">
            <path class="cls-1" d="M3.11 0A3.12 3.12 0 0 0 0 3.11a3.12 3.12 0 0 0 3.11 3.12 3.12 3.12 0 0 0 3.12-3.11A3.12 3.12 0 0 0 3.11 0zm.33 4.65H2V1.58h1.31a.94.94 0 0 1 1 .94.71.71 0 0 1-.31.53.67.67 0 0 1 .37.63.91.91 0 0 1-.93.97z"/>
            <path class="cls-1" d="M3.25 2.28h-.49v.5h.49a.25.25 0 0 0 0-.5z"/>
            <path class="cls-1" d="M3.38 3.43h-.62V4h.63c.31 0 .31-.57-.01-.57z"/>
        </g>
    </g>
</symbol><symbol id="ico-yt" viewBox="0 0 6.23 6.23">
    
    <title>
        yt
    </title>
    <g id="Layer_2" data-name="Layer 2">
        <g id="Layer_1-2" data-name="Layer 1">
            <path class="cls-1" d="M3.11 0a3.12 3.12 0 1 0 3.12 3.11A3.11 3.11 0 0 0 3.11 0zm2 3.27a5.62 5.62 0 0 1 0 .69.94.94 0 0 1-.16.41.59.59 0 0 1-.4.18H3.14 1.77a.71.71 0 0 1-.44-.18.94.94 0 0 1-.19-.37 5.62 5.62 0 0 1 0-.69V3a5.57 5.57 0 0 1 0-.68.9.9 0 0 1 .16-.41.54.54 0 0 1 .4-.18H4.52a.54.54 0 0 1 .4.18.9.9 0 0 1 .16.41 5.57 5.57 0 0 1 0 .68z"/>
            <path class="cls-1" d="M2.69 2.48v1.18l1.09-.59-.59-.33-.5-.26z"/>
        </g>
    </g>
</symbol></svg>